<?xml version="1.0" standalone="no"?>
<!DOCTYPE svg PUBLIC "-//W3C//DTD SVG 20010904//EN"
 "http://www.w3.org/TR/2001/REC-SVG-20010904/DTD/svg10.dtd">
<svg version="1.0" xmlns="http://www.w3.org/2000/svg"
 width="851.000000pt" height="851.000000pt" viewBox="0 0 851.000000 851.000000"
 preserveAspectRatio="xMidYMid meet">
<metadata>
Created by potrace 1.14, written by Peter Selinger 2001-2017
</metadata>
<g transform="translate(0.000000,851.000000) scale(0.100000,-0.100000)"
fill="#000000" stroke="none">
<path d="M4290 7938 c-72 -14 -266 -71 -292 -84 -14 -8 -34 -14 -45 -14 -10 0
-42 -9 -71 -20 -29 -11 -57 -18 -62 -15 -5 3 -36 -6 -70 -20 -33 -14 -72 -26
-87 -27 -16 -1 -34 -6 -40 -11 -7 -5 -13 -6 -13 -1 0 5 -4 3 -8 -4 -5 -7 -25
-15 -45 -17 -21 -3 -54 -12 -75 -21 -46 -20 -115 -40 -164 -48 -20 -4 -50 -13
-65 -21 -15 -8 -48 -17 -73 -21 -25 -4 -58 -13 -73 -21 -15 -7 -32 -11 -37 -8
-5 3 -11 1 -14 -4 -4 -5 -25 -12 -48 -16 -24 -4 -52 -13 -63 -20 -11 -7 -47
-19 -80 -25 -33 -7 -78 -21 -99 -32 -44 -22 -44 -23 42 -64 28 -14 52 -30 52
-35 0 -5 3 -8 8 -7 11 3 91 -41 113 -63 11 -11 24 -17 29 -14 6 3 34 -9 62
-28 75 -49 89 -51 166 -28 37 12 92 29 122 37 104 30 112 35 98 52 -7 8 -32
24 -55 34 -24 10 -43 24 -43 31 0 14 135 61 149 52 5 -3 11 -1 13 4 1 5 17 11
34 14 17 3 57 14 90 25 112 37 159 51 199 58 22 3 54 12 70 20 60 26 116 42
135 37 11 -3 20 -1 20 4 0 5 19 16 43 23 44 13 99 30 157 48 27 9 47 8 89 -3
30 -8 57 -19 61 -25 4 -6 27 -16 51 -21 24 -5 64 -18 89 -28 64 -27 84 -34 93
-33 4 1 24 -5 45 -14 20 -9 63 -24 95 -35 32 -10 68 -25 80 -34 12 -8 31 -15
42 -15 24 0 78 -19 122 -43 18 -9 43 -17 58 -17 14 0 25 -4 25 -9 0 -5 9 -11
20 -14 11 -3 20 -9 20 -14 0 -7 -152 -78 -185 -87 -5 -1 -33 -14 -62 -29 -29
-15 -59 -27 -66 -27 -8 0 -22 -9 -32 -20 -10 -11 -23 -20 -29 -20 -6 0 -33
-11 -60 -25 -27 -13 -54 -21 -59 -18 -6 4 -7 1 -2 -7 6 -10 4 -12 -9 -7 -10 4
-15 3 -11 -3 3 -5 -7 -13 -22 -16 -15 -4 -49 -20 -76 -36 -26 -15 -52 -28 -56
-28 -9 0 -101 -50 -101 -55 0 -1 20 -2 44 -1 24 0 42 4 40 8 -4 6 8 11 121 43
33 9 92 28 130 41 54 18 73 20 82 11 20 -22 86 -290 78 -318 -9 -29 -143 -84
-260 -107 -27 -6 -75 -18 -105 -26 -81 -24 -150 -31 -295 -31 -150 0 -246 10
-290 30 -16 8 -52 20 -80 26 -27 7 -69 21 -92 31 -40 18 -41 19 -32 51 5 17
18 88 30 157 18 113 28 139 52 140 14 0 120 -30 142 -41 22 -10 95 -21 95 -14
0 7 -73 51 -149 90 -39 20 -77 42 -83 49 -7 6 -50 29 -95 51 -46 21 -83 42
-83 46 0 4 25 15 55 23 30 9 81 23 113 33 31 9 68 17 81 19 13 1 38 9 55 18
17 8 74 27 126 42 52 14 112 33 133 40 20 8 37 12 37 9 0 -12 58 26 64 41 4 9
5 18 4 19 -27 20 -46 21 -97 5 -236 -77 -274 -87 -328 -89 -12 -1 -28 -8 -36
-16 -14 -13 -57 -27 -127 -41 -14 -3 -34 -9 -45 -14 -22 -9 -150 -48 -283 -85
-48 -14 -105 -32 -127 -40 l-40 -15 0 -177 c0 -98 -4 -189 -9 -203 -10 -29
-34 -138 -41 -190 -3 -20 -12 -74 -19 -120 -14 -84 -14 -85 8 -108 13 -13 38
-27 57 -31 39 -9 111 -3 104 9 -3 4 4 10 15 13 17 4 19 12 15 68 -3 35 -7 75
-9 89 -3 14 -7 50 -11 80 -9 83 -26 163 -37 178 -11 13 -20 268 -11 314 5 24
8 26 37 21 17 -4 65 -26 106 -50 41 -25 82 -48 90 -53 8 -4 13 -14 11 -22 -2
-7 -7 -38 -12 -68 -4 -30 -15 -91 -24 -135 -9 -44 -17 -93 -19 -110 -2 -16 -6
-44 -10 -62 -6 -26 -4 -34 14 -43 11 -6 17 -16 14 -22 -4 -6 -3 -8 4 -4 12 7
62 -13 62 -26 0 -4 6 -8 14 -8 7 0 19 -7 26 -15 7 -8 21 -15 31 -15 11 0 27
-4 37 -9 29 -15 127 -51 153 -57 238 -49 379 -59 564 -41 111 11 304 46 340
62 54 24 106 34 128 26 12 -5 36 -24 54 -42 18 -19 39 -40 48 -47 8 -7 12 -18
9 -24 -4 -6 -3 -8 3 -5 5 3 34 -18 65 -47 30 -29 62 -56 72 -59 9 -4 16 -13
16 -22 0 -8 5 -15 11 -15 5 0 7 -5 4 -10 -4 -6 -3 -9 2 -8 10 3 41 -22 105
-84 27 -27 52 -48 55 -48 4 0 15 -8 26 -17 18 -17 19 -17 12 17 -3 19 -9 53
-11 75 -3 22 -12 54 -20 70 -9 17 -19 48 -24 70 -29 138 -42 191 -50 200 -4 5
-14 39 -20 75 -7 36 -18 79 -25 95 -8 17 -17 50 -20 75 -4 25 -16 65 -26 89
-10 24 -19 54 -19 66 0 21 -22 104 -40 151 -6 15 -3 25 11 37 10 9 19 13 19 9
0 -4 4 -2 8 3 11 16 128 75 135 69 3 -3 21 5 39 18 18 13 42 25 53 27 11 1 25
7 31 12 19 16 105 59 122 62 10 2 29 11 44 20 14 10 36 19 47 20 12 1 21 4 21
8 0 4 39 26 86 49 95 48 96 55 14 84 -97 33 -150 53 -157 59 -3 4 -15 7 -26 7
-26 0 -88 30 -82 40 3 5 -3 6 -14 3 -10 -2 -36 5 -57 16 -21 12 -51 21 -66 21
-16 0 -28 4 -28 8 0 5 -6 9 -12 9 -19 0 -231 75 -247 87 -7 6 -25 12 -40 14
-14 2 -44 11 -66 21 -22 10 -72 27 -112 39 -40 12 -75 27 -78 32 -3 6 -19 10
-35 10 -16 0 -35 7 -43 15 -8 8 -17 12 -20 9 -3 -4 -25 3 -49 14 -24 11 -68
28 -99 37 -31 8 -66 23 -78 31 -26 19 -62 22 -111 12z"/>
<path d="M4548 7163 c7 -3 16 -2 19 1 4 3 -2 6 -13 5 -11 0 -14 -3 -6 -6z"/>
<path d="M6274 6950 c4 -124 8 -236 10 -250 1 -17 37 -59 114 -134 l112 -109
0 87 c0 73 2 85 13 74 15 -15 313 -298 476 -453 58 -55 138 -131 177 -169 40
-38 77 -72 82 -75 5 -3 12 -26 16 -49 4 -33 96 -545 121 -677 13 -67 33 -190
32 -192 -1 -1 -34 21 -72 47 -39 27 -113 79 -165 114 -52 36 -138 94 -190 131
-52 36 -135 93 -185 127 -49 34 -93 66 -96 71 -4 5 -12 8 -19 5 -6 -2 60 -71
149 -153 l161 -150 -129 -129 -130 -130 -57 45 c-80 61 -260 243 -327 331 -82
107 -140 215 -185 342 -34 97 -73 280 -61 289 2 2 76 29 163 60 108 39 162 54
166 46 4 -6 22 -67 40 -135 18 -68 34 -124 37 -124 3 0 1 111 -2 247 l-7 248
43 -40 c66 -59 399 -376 427 -407 32 -36 72 -38 72 -5 0 17 -37 59 -137 153
-75 71 -158 149 -184 174 -26 25 -114 108 -195 185 -82 77 -173 164 -204 193
-44 43 -60 52 -80 48 -14 -2 -93 -44 -175 -92 -82 -48 -159 -87 -170 -86 -11
0 -98 -29 -193 -66 l-174 -66 5 -49 c5 -55 29 -93 75 -120 l32 -19 42 34 c130
101 258 212 258 222 0 7 12 19 27 27 15 8 84 47 152 86 81 47 129 69 135 63 5
-5 12 -70 14 -145 3 -110 2 -135 -9 -135 -8 0 -93 -29 -189 -65 -96 -36 -180
-65 -187 -65 -20 0 -25 -37 -18 -123 34 -424 167 -700 500 -1037 l103 -105
-77 -320 c-43 -176 -76 -322 -74 -324 2 -3 172 164 379 370 206 206 377 375
378 377 2 2 64 -39 137 -90 288 -202 488 -338 505 -345 14 -5 16 -2 11 18 -3
13 -15 76 -26 139 -26 147 -121 673 -127 703 -2 12 -29 164 -60 337 l-56 315
-72 70 c-39 39 -152 147 -251 240 -203 192 -334 317 -480 456 -55 53 -136 129
-179 170 -44 41 -89 83 -100 94 -12 12 -45 43 -75 70 l-54 50 7 -225z"/>
<path d="M2256 7125 c-8 -8 -19 -15 -24 -15 -6 0 -13 -7 -16 -16 -3 -8 -11
-12 -16 -9 -6 4 -9 1 -8 -6 2 -7 -2 -13 -9 -14 -6 0 -20 -10 -31 -22 -10 -13
-23 -19 -27 -15 -5 4 -5 2 -1 -5 4 -7 -5 -19 -21 -30 -15 -9 -38 -28 -50 -42
-12 -15 -22 -23 -23 -19 0 4 -10 -3 -23 -15 -29 -29 -133 -117 -157 -134 -10
-7 -32 -26 -48 -41 -38 -36 -129 -114 -222 -191 -41 -34 -95 -79 -120 -100
-96 -82 -107 -90 -115 -83 -5 4 -5 2 -2 -4 4 -7 -16 -29 -46 -52 -29 -23 -63
-52 -76 -66 -13 -14 -28 -23 -34 -19 -6 3 -7 1 -4 -4 7 -11 -20 -28 -36 -24
-5 1 -6 -3 -2 -8 3 -6 -5 -17 -19 -26 -19 -13 -28 -35 -46 -113 -12 -53 -29
-122 -37 -152 -9 -30 -15 -61 -14 -67 1 -7 -3 -13 -9 -13 -6 0 -9 -4 -6 -9 9
-14 -29 -163 -39 -154 -4 4 -5 3 -1 -4 3 -6 -7 -67 -23 -135 -17 -68 -42 -170
-55 -228 -14 -58 -57 -235 -96 -394 -71 -292 -87 -366 -78 -366 5 0 189 110
240 144 15 10 32 15 38 11 6 -4 9 -1 8 7 -2 7 5 12 14 12 10 -1 16 3 15 8 -1
6 21 22 49 36 l51 26 37 151 c20 83 36 154 36 158 0 14 -27 7 -50 -13 -12 -11
-27 -17 -33 -13 -5 3 -7 1 -4 -4 4 -6 0 -14 -9 -17 -24 -9 -44 -7 -44 5 0 5 4
7 10 4 5 -3 7 0 4 8 -3 8 2 41 11 73 20 73 21 79 30 132 4 26 11 40 17 35 7
-3 8 -1 4 5 -9 14 25 162 37 162 4 0 5 4 2 10 -5 9 7 73 22 110 3 8 7 22 8 30
5 31 36 170 63 280 18 70 33 114 40 113 11 -3 16 10 13 31 -1 5 5 6 14 2 9 -3
14 -2 11 3 -7 10 29 44 50 47 20 3 31 14 15 14 -7 0 16 23 51 52 34 29 81 68
103 88 88 77 137 115 146 113 5 -2 8 2 6 9 -1 7 4 12 11 13 6 0 11 3 10 7 -4
11 36 37 46 31 5 -4 6 -1 2 5 -4 6 6 19 21 29 15 9 38 28 50 42 12 15 22 23
23 18 0 -4 21 13 48 38 26 25 53 43 60 40 7 -3 10 -1 7 4 -3 5 0 13 6 17 8 4
9 -5 5 -32 -3 -22 -8 -73 -11 -114 -3 -41 -7 -100 -10 -130 -6 -62 -11 -135
-20 -260 -4 -46 -8 -96 -10 -110 -8 -66 -16 -230 -12 -230 3 0 16 45 28 100
13 59 26 97 32 93 6 -4 7 -1 3 6 -5 7 4 62 19 122 23 92 30 109 44 104 9 -4
52 -16 96 -27 44 -12 83 -26 86 -31 4 -5 11 -7 17 -3 9 5 42 -3 104 -26 19 -7
25 -15 23 -31 -2 -12 -7 -44 -10 -72 -3 -27 -10 -66 -15 -85 -5 -19 -16 -66
-26 -105 -9 -38 -20 -74 -23 -80 -3 -5 -6 -12 -6 -15 -6 -51 -119 -300 -136
-300 -7 0 -10 -3 -6 -6 8 -8 -68 -120 -110 -162 -18 -18 -33 -30 -33 -26 0 3
-7 1 -15 -6 -8 -7 -13 -15 -11 -19 11 -17 -127 -136 -145 -125 -8 4 -9 3 -5
-4 4 -7 3 -12 -2 -12 -14 0 -227 182 -225 191 2 5 -4 6 -11 3 -9 -3 -17 3 -21
15 -5 16 13 39 92 115 54 53 94 96 88 96 -5 0 -55 -27 -110 -59 -54 -33 -104
-57 -110 -54 -5 4 -7 3 -3 -2 10 -11 -162 -114 -179 -108 -7 3 -11 15 -8 27 2
11 21 91 41 176 21 85 39 167 42 182 2 15 8 25 13 22 5 -3 6 2 3 10 -3 9 -3
24 1 34 4 9 9 24 10 32 1 8 10 50 20 93 16 73 16 80 1 95 -14 14 -18 14 -30 2
-13 -13 -89 -305 -111 -422 -4 -21 -11 -35 -16 -32 -5 3 -6 -1 -4 -8 5 -12
-66 -329 -82 -368 -3 -8 -7 -24 -9 -35 -1 -11 -12 -58 -23 -105 -12 -47 -21
-90 -21 -97 0 -6 77 -55 170 -109 116 -66 169 -101 166 -110 -3 -8 -1 -14 5
-14 6 0 7 -5 3 -12 -4 -7 -3 -8 4 -4 14 8 63 -34 55 -47 -4 -6 -1 -7 6 -2 8 4
22 -1 35 -14 11 -12 57 -51 101 -87 66 -53 85 -64 105 -59 14 4 33 7 42 8 9 1
15 5 12 8 -2 4 0 10 6 14 15 9 41 76 42 107 1 39 -12 50 -91 78 -38 13 -67 28
-64 33 3 6 1 7 -4 4 -11 -7 -137 36 -129 44 4 4 -11 6 -74 12 -17 1 -34 7 -38
12 -4 6 -12 11 -19 12 -7 2 -34 16 -60 31 -26 16 -77 45 -113 65 -36 19 -70
45 -77 56 -11 18 -4 25 97 85 59 36 112 66 116 66 4 0 59 -44 123 -98 64 -54
129 -107 144 -119 15 -12 28 -24 28 -27 -1 -3 1 -5 2 -3 2 1 11 -4 20 -11 13
-11 21 -11 45 2 16 8 31 14 33 13 2 -1 3 0 2 1 -1 2 29 24 65 49 37 25 76 54
88 64 11 11 25 19 32 19 6 0 21 13 33 30 12 16 26 27 31 24 5 -3 7 0 6 8 -2 7
3 12 10 10 8 -1 11 1 8 6 -7 12 78 94 89 85 4 -5 5 -3 2 3 -4 7 10 34 31 60
22 27 47 63 57 81 10 18 22 30 27 27 5 -3 7 -2 6 3 -2 4 22 60 53 123 31 63
71 156 89 205 18 50 35 97 38 105 3 8 4 21 3 28 -1 6 3 12 10 12 6 0 9 6 6 13
-5 12 27 154 36 163 5 5 301 92 327 97 8 1 20 5 25 9 12 7 163 50 185 52 9 1
20 4 25 8 6 3 22 8 38 12 15 3 27 10 27 15 0 10 9 7 -190 61 -85 23 -195 53
-245 66 -49 14 -121 33 -160 43 -242 64 -311 83 -319 91 -5 5 -14 6 -21 4 -7
-3 -29 2 -49 10 l-36 15 5 88 c3 48 7 98 9 109 3 12 5 48 7 80 1 33 4 63 7 68
3 5 6 48 8 95 1 47 5 104 8 126 3 22 8 79 12 128 6 89 1 102 -30 72z"/>
<path d="M4705 7050 c3 -5 8 -10 11 -10 2 0 4 5 4 10 0 6 -5 10 -11 10 -5 0
-7 -4 -4 -10z"/>
<path d="M4248 6145 c-2 -2 -50 -5 -108 -8 -144 -7 -264 -28 -396 -68 -17 -5
-36 -9 -43 -9 -7 0 -63 -20 -124 -44 -62 -25 -119 -46 -127 -48 -8 -2 -19 -8
-25 -15 -14 -17 -83 -53 -100 -53 -8 0 -15 -5 -15 -12 0 -6 -3 -9 -6 -5 -3 3
-34 -14 -67 -39 -34 -24 -77 -54 -96 -66 -18 -13 -42 -31 -52 -40 -10 -10 -22
-18 -26 -18 -4 0 -16 -11 -28 -26 -11 -14 -29 -27 -40 -28 -11 -2 -19 -8 -18
-14 1 -5 -15 -25 -35 -44 -20 -19 -49 -49 -65 -67 -15 -18 -35 -34 -45 -36 -9
-1 -16 -10 -16 -18 1 -9 -9 -28 -22 -42 -13 -14 -24 -29 -24 -32 0 -3 -9 -14
-21 -24 -11 -9 -20 -20 -19 -24 1 -4 -6 -17 -16 -29 -23 -26 -84 -125 -84
-134 0 -4 -9 -15 -20 -25 -11 -9 -20 -23 -20 -30 0 -18 -28 -75 -52 -106 -10
-13 -18 -33 -18 -45 0 -12 -4 -26 -9 -31 -4 -6 -20 -50 -35 -100 -15 -49 -33
-108 -40 -130 -14 -42 -28 -117 -47 -250 -13 -96 -19 -368 -8 -410 4 -16 11
-55 14 -85 3 -30 10 -71 15 -90 5 -19 12 -60 15 -90 4 -30 11 -59 15 -65 5 -5
16 -39 25 -74 9 -35 23 -73 31 -86 8 -12 16 -35 18 -51 5 -37 16 -64 26 -64 4
0 13 -12 19 -27 28 -71 172 -298 243 -384 21 -25 38 -53 38 -62 0 -10 5 -14
14 -11 8 3 19 -3 25 -14 14 -26 67 -79 93 -93 11 -6 17 -17 14 -25 -3 -8 -2
-13 3 -10 5 4 46 -23 90 -59 45 -36 83 -65 86 -65 12 0 145 -92 145 -100 0 -5
6 -7 14 -4 8 3 17 1 20 -4 3 -6 26 -20 51 -32 25 -12 45 -26 45 -31 0 -6 5 -7
10 -4 6 3 10 2 10 -2 0 -5 8 -9 18 -10 9 -1 40 -11 67 -23 105 -46 253 -87
438 -120 142 -26 552 -13 662 21 56 16 199 49 217 49 10 0 18 4 18 9 0 10 91
44 122 47 9 1 24 9 33 18 9 9 28 19 43 22 15 4 33 12 41 17 15 12 48 33 71 43
8 4 34 20 57 36 23 15 45 28 48 28 13 0 105 63 105 72 0 4 7 8 16 8 9 0 18 9
21 20 3 10 15 22 27 26 31 10 271 258 298 308 6 12 20 29 31 39 11 9 16 17 11
17 -5 0 -4 4 1 8 13 9 74 111 109 180 14 28 31 52 36 52 6 0 10 11 10 24 0 14
6 31 14 39 8 7 22 36 31 63 9 26 21 54 26 61 10 11 18 43 51 188 6 28 14 52
18 55 4 3 11 39 14 80 4 41 11 79 15 85 19 23 19 408 0 509 -4 23 -8 61 -10
86 -1 25 -7 54 -14 65 -6 11 -20 56 -30 100 -10 44 -26 98 -37 119 -10 22 -18
45 -18 52 0 7 -16 45 -35 85 -19 39 -32 76 -29 81 3 4 1 8 -4 8 -5 0 -15 12
-23 28 -7 15 -33 58 -57 95 -24 38 -48 81 -54 98 -5 16 -15 29 -21 29 -7 0
-32 28 -57 62 -58 80 -228 252 -304 307 -32 24 -67 54 -79 67 -11 13 -27 24
-34 24 -7 0 -22 9 -33 20 -11 11 -20 18 -20 15 0 -8 -61 24 -82 42 -20 18
-198 103 -215 103 -7 0 -13 5 -13 10 0 6 -11 10 -24 10 -14 0 -31 7 -40 15 -8
8 -22 15 -30 15 -8 0 -59 12 -113 26 -152 40 -163 42 -243 49 -41 3 -95 8
-120 11 -82 8 -139 12 -142 9z m-89 -532 c-1 -181 -4 -333 -6 -339 -5 -14
-522 -17 -543 -4 -15 9 -7 61 14 101 7 14 16 43 20 65 14 78 55 191 134 366
22 51 31 60 79 83 54 25 181 52 261 54 l43 1 -2 -327z m368 307 c76 -9 151
-28 169 -42 18 -13 74 -127 76 -153 1 -14 5 -25 8 -25 9 0 50 -98 50 -120 0
-11 8 -39 19 -62 25 -57 41 -110 41 -134 0 -11 4 -24 9 -29 5 -6 12 -24 16
-42 5 -25 2 -34 -12 -41 -18 -10 -506 -14 -531 -4 -11 4 -13 67 -11 326 1 176
4 327 7 335 4 10 16 12 46 7 23 -4 73 -11 113 -16z m481 -151 c17 -6 34 -19
37 -30 5 -14 12 -18 26 -14 13 4 26 -2 43 -19 13 -14 30 -26 37 -26 8 0 26
-11 40 -24 14 -13 35 -27 47 -30 12 -4 22 -11 22 -16 0 -5 6 -10 14 -12 25 -6
159 -128 245 -224 24 -27 53 -59 65 -72 16 -18 18 -25 7 -31 -7 -5 -115 -8
-239 -7 l-225 1 -14 60 c-32 141 -43 184 -69 260 -16 44 -38 103 -51 132 -31
71 -32 69 15 52z m-1480 -52 c-6 -20 -19 -45 -27 -54 -9 -10 -18 -32 -19 -50
-1 -18 -11 -53 -22 -78 -11 -26 -20 -58 -20 -71 0 -13 -4 -24 -10 -24 -5 0 -7
-7 -4 -15 3 -8 -1 -29 -10 -46 -9 -18 -16 -44 -16 -58 0 -56 0 -56 -244 -56
-123 0 -227 3 -231 7 -9 9 55 89 66 82 5 -3 9 -1 9 4 0 8 19 34 49 67 5 6 18
17 29 26 11 9 21 21 23 26 6 15 151 133 191 156 21 11 38 25 38 29 0 5 5 6 10
3 6 -3 10 -1 10 5 0 14 81 51 94 43 5 -3 6 -1 3 4 -8 13 74 56 85 45 4 -4 2
-24 -4 -45z m-192 -654 c11 -4 15 -33 5 -33 -3 0 -6 -12 -6 -27 -1 -44 -15
-205 -19 -212 -4 -7 -18 -180 -21 -251 -1 -25 -2 -70 -3 -100 -1 -30 -7 -62
-12 -70 -8 -13 -59 -15 -347 -16 -207 -1 -343 2 -350 8 -9 7 -10 15 -2 30 6
11 8 25 6 33 -3 7 -2 30 3 51 5 22 11 68 15 104 4 36 15 83 24 105 10 23 21
58 25 79 11 58 74 208 96 228 11 11 20 27 20 36 0 10 5 23 11 29 10 10 529 16
555 6z m810 -1 c17 -3 16 -699 0 -705 -7 -3 -155 -4 -329 -3 -349 1 -343 0
-332 61 2 17 7 75 10 130 10 166 15 235 20 258 2 12 7 51 10 87 5 55 17 121
30 165 2 7 98 10 291 10 159 -1 294 -2 300 -3z m831 -51 c6 -30 13 -86 16
-126 2 -39 7 -77 11 -83 3 -6 8 -57 11 -114 4 -96 10 -175 20 -273 3 -22 1
-45 -3 -50 -5 -7 -117 -11 -334 -11 -303 -1 -327 0 -331 17 -3 9 -5 164 -5
344 1 253 4 329 14 339 10 10 77 13 301 12 l288 -1 12 -54z m759 47 c12 -8 74
-127 77 -149 2 -8 13 -35 26 -61 12 -26 29 -82 36 -124 7 -42 18 -80 23 -83 6
-3 13 -24 15 -46 3 -22 11 -70 17 -108 7 -37 9 -84 5 -103 l-6 -36 -344 4
c-189 2 -346 6 -349 9 -3 3 -6 38 -7 79 -1 41 -5 116 -10 165 -4 50 -11 115
-13 145 -13 141 -18 179 -27 239 -8 48 -7 66 2 71 15 10 540 7 555 -2z m-2459
-907 c10 -8 10 -4 18 -141 4 -63 8 -133 10 -155 2 -22 7 -67 9 -100 10 -110
18 -180 23 -205 2 -14 7 -45 10 -69 l5 -43 -273 5 c-151 2 -282 8 -291 12 -10
4 -20 17 -24 28 -3 12 -12 29 -19 37 -7 8 -18 34 -24 58 -7 23 -16 42 -22 42
-5 0 -9 6 -7 13 2 7 -4 29 -13 48 -25 51 -48 128 -55 179 -3 25 -9 56 -14 70
-15 43 -21 83 -27 158 l-5 73 345 -2 c190 -1 349 -5 354 -8z m876 -4 c2 -7 4
-166 4 -354 0 -245 -3 -343 -11 -346 -6 -3 -138 -5 -294 -5 -202 0 -284 3
-289 11 -4 7 -8 25 -9 41 -1 16 -6 31 -11 35 -12 8 -35 193 -48 396 -11 166
-14 219 -9 226 2 4 152 7 333 7 245 1 331 -2 334 -11z m874 6 c7 -3 10 -20 8
-46 -8 -83 -14 -174 -21 -292 -3 -66 -10 -128 -15 -137 -5 -9 -9 -33 -9 -52 0
-30 -7 -75 -26 -164 l-5 -23 -282 2 c-155 1 -291 5 -302 10 -19 6 -21 14 -18
95 1 49 2 207 2 352 l1 263 327 -2 c180 -1 333 -3 340 -6z m909 -60 c-8 -100
-25 -205 -35 -217 -4 -6 -11 -31 -14 -55 -3 -24 -10 -47 -15 -50 -5 -3 -13
-25 -17 -49 -4 -23 -12 -48 -19 -55 -6 -6 -12 -23 -13 -36 -1 -13 -7 -27 -13
-31 -6 -3 -12 -16 -15 -28 -2 -12 -11 -37 -21 -54 -9 -18 -20 -40 -24 -48 -4
-8 -25 -18 -46 -21 -46 -8 -501 -9 -520 -2 -13 5 -12 63 1 113 2 8 7 53 10
100 4 47 9 87 10 90 4 7 17 185 20 270 1 36 3 82 4 103 l1 37 356 0 356 0 -6
-67z m-2546 -863 c5 -8 10 -32 10 -52 0 -21 4 -38 9 -38 4 0 18 -37 31 -82 26
-96 47 -160 66 -205 8 -17 14 -35 13 -40 -1 -4 3 -21 9 -36 7 -16 12 -33 12
-38 0 -10 -35 7 -58 29 -7 6 -21 12 -30 12 -23 1 -54 25 -44 35 4 5 2 5 -4 2
-7 -4 -23 2 -37 13 -14 11 -28 20 -32 20 -10 0 -148 109 -212 167 -28 26 -49
52 -46 58 4 5 2 7 -2 2 -11 -10 -46 23 -38 36 3 5 2 7 -4 4 -9 -5 -30 16 -89
88 -22 27 -22 30 -6 36 9 4 113 6 230 5 177 -1 214 -4 222 -16z m748 13 c19
-4 19 -18 19 -321 0 -174 -2 -324 -5 -335 -3 -13 -11 -17 -31 -13 -14 2 -64
10 -111 17 -47 6 -107 17 -135 23 -49 12 -51 14 -88 86 -22 41 -40 81 -42 90
-2 8 -15 38 -29 67 -14 28 -28 64 -32 80 -4 15 -10 33 -15 38 -4 6 -13 33 -19
60 -5 28 -20 80 -31 117 -16 49 -19 72 -11 81 8 10 71 13 261 14 138 1 259 -1
269 -4z m774 -33 c-1 -19 -9 -52 -17 -73 -8 -20 -15 -48 -15 -60 0 -13 -5 -28
-11 -34 -6 -6 -12 -21 -14 -34 -4 -29 -31 -107 -45 -131 -6 -10 -10 -23 -10
-30 0 -19 -79 -172 -103 -200 -23 -26 -79 -43 -172 -52 -27 -3 -74 -10 -104
-16 -29 -6 -56 -8 -59 -5 -7 7 -1 631 7 666 0 3 124 6 274 5 l272 -1 -3 -35z
m683 28 c4 -4 -11 -25 -34 -48 -22 -22 -50 -54 -61 -70 -12 -17 -27 -30 -35
-30 -7 0 -16 -11 -19 -24 -3 -14 -16 -26 -31 -30 -15 -4 -30 -17 -35 -31 -5
-14 -13 -25 -17 -25 -5 0 -19 -10 -33 -22 -42 -38 -140 -109 -140 -101 0 4
-13 -5 -28 -20 -16 -15 -31 -24 -35 -20 -4 3 -7 2 -7 -4 0 -6 -8 -13 -17 -17
-10 -3 -33 -15 -52 -27 -27 -16 -36 -18 -42 -7 -13 20 -11 38 17 118 14 41 29
91 33 110 4 19 12 44 18 55 6 11 18 56 28 100 9 44 18 85 20 92 4 12 457 14
470 1z"/>
<path d="M4665 5850 c3 -5 10 -10 16 -10 5 0 9 5 9 10 0 6 -7 10 -16 10 -8 0
-12 -4 -9 -10z"/>
<path d="M3180 5499 c0 -5 5 -7 10 -4 6 3 10 8 10 11 0 2 -4 4 -10 4 -5 0 -10
-5 -10 -11z"/>
<path d="M3440 2810 c0 -6 7 -10 15 -10 8 0 15 2 15 4 0 2 -7 6 -15 10 -8 3
-15 1 -15 -4z"/>
<path d="M1585 5840 c-3 -5 -1 -10 4 -10 6 0 11 5 11 10 0 6 -2 10 -4 10 -3 0
-8 -4 -11 -10z"/>
<path d="M1120 5104 c0 -8 5 -12 10 -9 6 3 10 10 10 16 0 5 -4 9 -10 9 -5 0
-10 -7 -10 -16z"/>
<path d="M2110 4229 c-36 -36 -64 -58 -71 -53 -7 4 -9 3 -6 -3 7 -12 11 -7
-292 -308 -197 -196 -244 -237 -252 -225 -9 13 -10 12 -5 -2 7 -22 -39 -78
-65 -78 -10 0 -19 5 -19 12 0 6 -3 9 -6 5 -7 -7 -34 17 -34 30 0 5 -9 9 -19
10 -28 2 -72 33 -64 46 3 6 1 7 -6 3 -11 -7 -43 13 -95 59 -13 11 -28 21 -35
22 -21 5 -136 95 -133 105 1 5 -2 6 -8 3 -13 -8 -52 24 -44 36 3 5 -1 6 -9 3
-11 -4 -126 70 -147 95 -14 17 -28 6 -32 -24 -2 -19 -1 -35 3 -35 3 0 11 -28
17 -62 16 -93 70 -408 87 -506 8 -46 15 -102 15 -122 0 -21 4 -40 9 -42 5 -1
12 -32 16 -68 3 -36 12 -90 20 -120 22 -88 67 -361 66 -405 0 -22 4 -44 9 -50
5 -6 11 -27 13 -47 3 -36 2 -34 165 -192 34 -32 59 -62 57 -66 -3 -4 3 -7 12
-6 9 0 27 -14 40 -33 13 -19 23 -31 23 -26 0 4 30 -22 66 -58 41 -42 63 -70
58 -78 -4 -7 -3 -9 4 -5 6 3 24 -6 40 -21 16 -16 45 -41 65 -57 20 -17 33 -34
30 -39 -3 -6 -2 -7 4 -4 5 3 39 -24 75 -61 36 -37 98 -97 137 -134 40 -38 69
-72 66 -78 -3 -5 0 -8 7 -5 7 3 70 -52 142 -125 72 -72 132 -130 135 -130 3 0
22 -16 41 -35 19 -19 38 -35 43 -35 4 0 5 91 1 203 -4 111 -7 223 -8 248 -1
39 -7 52 -48 97 -25 29 -49 52 -53 52 -4 0 -33 25 -63 55 -62 62 -88 71 -78
28 14 -60 16 -99 7 -112 -10 -16 -13 -14 -65 49 -16 19 -32 35 -36 35 -11 0
-70 63 -70 74 0 6 -6 11 -13 11 -21 0 -259 239 -251 252 4 7 3 8 -4 4 -6 -3
-25 9 -43 28 -17 19 -37 34 -43 33 -6 -1 -10 4 -8 11 1 8 -2 11 -7 7 -12 -7
-33 29 -23 40 4 3 3 6 -3 4 -15 -3 -45 12 -45 23 0 13 -26 38 -40 38 -7 0 -9
7 -6 16 3 8 2 13 -2 11 -4 -3 -24 10 -46 27 -26 23 -39 42 -40 63 -2 16 -5 34
-8 39 -3 5 -9 36 -13 69 -4 33 -9 69 -12 80 -4 22 -37 198 -52 285 -6 30 -8
69 -5 85 4 20 2 26 -4 17 -8 -12 -21 45 -37 163 -2 17 -8 47 -13 67 -5 20 -7
39 -4 42 9 10 34 7 27 -3 -3 -5 -1 -12 5 -16 5 -3 10 -1 10 5 0 7 13 1 30 -12
16 -12 65 -48 109 -78 44 -30 77 -58 74 -64 -3 -5 -2 -6 4 -3 13 8 95 -52 88
-64 -4 -5 1 -6 9 -3 8 3 32 -7 53 -23 45 -33 54 -44 46 -57 -4 -5 -1 -6 6 -2
7 5 20 2 29 -6 9 -8 34 -23 55 -33 36 -19 44 -29 30 -38 -5 -2 -2 -2 6 0 8 2
26 -4 40 -14 56 -38 101 -64 101 -60 0 2 -13 20 -30 38 -16 19 -30 42 -30 51
0 11 -16 25 -37 36 -21 10 -37 24 -35 31 1 7 -1 10 -6 7 -12 -7 -82 52 -82 70
0 8 -11 19 -24 24 -51 19 -60 72 -16 95 17 9 30 21 30 28 0 6 39 49 86 95 95
93 86 91 158 28 16 -14 33 -26 38 -26 5 0 7 -4 4 -9 -4 -5 9 -18 27 -29 18
-12 42 -31 54 -44 12 -13 32 -32 43 -42 13 -13 18 -26 14 -39 -5 -16 -3 -19
10 -14 11 5 28 -6 54 -35 57 -62 102 -130 95 -141 -3 -6 -1 -7 5 -3 6 3 13 -3
17 -14 3 -11 10 -20 15 -20 9 0 45 -71 42 -82 -1 -5 2 -8 7 -8 12 0 73 -148
66 -160 -3 -6 -1 -10 5 -10 6 0 9 -4 5 -9 -3 -5 -1 -12 4 -15 9 -6 39 -125 39
-156 0 -8 3 -28 6 -45 9 -41 -1 -52 -59 -66 -28 -6 -68 -20 -90 -30 -69 -31
-145 -59 -160 -59 -17 0 -38 70 -29 94 4 9 0 24 -9 34 -8 9 -20 41 -27 70 -24
103 -31 67 -27 -135 5 -212 2 -263 -17 -263 -18 0 -68 55 -59 65 5 4 2 5 -5 1
-8 -5 -16 2 -22 19 -5 14 -18 28 -27 32 -28 9 -113 95 -106 106 3 6 1 7 -4 4
-11 -7 -89 62 -85 76 1 4 -4 7 -10 7 -7 0 -40 29 -73 64 -45 48 -69 66 -96 71
l-35 7 4 -36 c2 -20 8 -36 14 -36 5 0 6 -5 2 -12 -4 -6 -3 -8 3 -5 11 7 133
-102 133 -117 0 -11 77 -86 88 -86 15 0 43 -36 35 -44 -5 -4 -3 -6 4 -4 17 4
235 -203 229 -219 -3 -7 -1 -15 4 -18 4 -3 10 -1 12 5 4 12 174 -150 170 -162
-1 -4 1 -7 6 -6 4 2 14 -3 22 -10 58 -49 62 -51 87 -41 13 5 29 6 35 3 7 -4 8
-2 4 4 -7 11 46 45 58 37 3 -3 4 -2 1 1 -2 4 18 18 45 33 27 14 77 43 111 64
33 20 65 34 71 31 5 -3 29 1 54 11 24 9 49 13 55 9 7 -4 9 -3 6 3 -6 9 50 35
98 46 6 1 15 5 20 8 21 13 91 33 104 30 8 -1 10 2 5 10 -5 9 -2 10 9 6 21 -8
30 23 24 82 -2 30 -12 51 -37 76 -30 31 -40 35 -76 33 -23 -2 -40 -6 -38 -10
5 -7 -104 -97 -178 -146 -28 -19 -57 -46 -66 -61 -8 -15 -23 -32 -33 -37 -10
-5 -45 -27 -80 -48 -34 -22 -68 -39 -75 -39 -7 0 -11 -3 -9 -7 2 -3 -24 -21
-57 -38 -56 -31 -61 -32 -73 -15 -17 22 -18 226 -1 246 10 13 130 65 166 72 8
2 42 14 75 26 33 13 65 24 70 25 6 1 13 3 18 4 4 1 11 3 17 4 5 0 19 9 31 20
21 17 21 23 14 135 -5 64 -8 132 -8 151 0 19 -4 38 -9 41 -4 3 -10 23 -11 45
-2 21 -7 46 -10 54 -33 80 -64 182 -62 204 2 15 -2 26 -9 26 -6 0 -29 35 -51
78 -22 42 -54 96 -72 119 -18 23 -33 46 -33 52 0 6 -13 23 -30 38 -16 14 -30
32 -30 40 0 7 -4 13 -10 13 -5 0 -10 7 -10 16 0 8 -4 13 -9 9 -6 -3 -15 5 -22
17 -6 13 -24 35 -40 50 -16 15 -29 31 -29 36 0 5 -10 12 -21 15 -14 4 -20 11
-16 21 4 9 1 13 -6 10 -18 -6 -90 71 -94 100 -2 14 13 87 33 163 20 76 42 163
49 193 7 30 23 93 35 140 12 47 21 93 21 103 0 9 5 17 10 17 6 0 7 5 4 10 -11
18 -25 10 -85 -51z"/>
<path d="M6633 4130 c-41 -17 -70 -75 -69 -136 l1 -56 54 -19 c30 -10 72 -28
94 -39 22 -12 42 -19 44 -16 3 3 12 -1 20 -9 8 -8 28 -15 44 -15 16 0 37 -8
47 -18 9 -9 25 -16 34 -14 25 5 99 -18 93 -28 -3 -6 0 -7 8 -4 9 3 22 -4 31
-18 9 -12 16 -19 16 -14 0 9 69 -31 85 -49 6 -6 26 -15 45 -21 28 -8 35 -15
37 -37 2 -28 -17 -44 -59 -52 -12 -3 -33 -15 -47 -28 -35 -32 -95 -61 -99 -47
-2 5 -14 10 -27 10 -20 0 -32 12 -36 38 -2 16 -22 32 -40 32 -11 0 -24 11 -31
25 -6 14 -19 25 -29 25 -10 0 -21 9 -24 20 -4 11 -15 20 -27 20 -11 0 -22 8
-25 20 -3 11 -9 20 -14 20 -4 0 -16 8 -26 18 -29 30 -88 28 -134 -4 -21 -14
-39 -30 -39 -35 0 -4 -10 -11 -22 -15 -13 -4 -32 -15 -43 -25 -78 -69 -104
-89 -114 -89 -6 0 -11 -4 -11 -9 0 -12 -118 -131 -130 -131 -6 0 -10 -4 -10
-10 0 -5 -6 -10 -14 -10 -16 0 -29 -27 -20 -41 3 -5 -2 -12 -10 -15 -9 -3 -14
-10 -11 -14 3 -5 -8 -24 -23 -42 -16 -18 -32 -43 -36 -56 -4 -12 -12 -20 -17
-16 -5 3 -9 2 -8 -3 4 -13 -32 -93 -41 -93 -5 0 -11 -15 -15 -32 -4 -18 -12
-42 -19 -53 -7 -11 -18 -40 -26 -65 -31 -105 -51 -166 -60 -185 -5 -11 -12
-40 -14 -64 -3 -25 -14 -53 -26 -66 -11 -12 -17 -24 -14 -28 12 -11 -65 -38
-112 -39 -30 0 -52 -7 -62 -18 -9 -10 -33 -21 -52 -24 -19 -4 -44 -11 -55 -15
-24 -10 -106 -35 -120 -36 -73 -8 -185 -42 -185 -56 0 -5 -7 -9 -15 -9 -8 0
-15 -4 -15 -8 0 -10 173 -67 250 -82 30 -6 68 -17 83 -25 15 -7 48 -17 74 -20
27 -4 80 -17 118 -30 39 -14 95 -30 125 -36 30 -6 66 -17 80 -24 14 -7 48 -15
76 -19 28 -3 64 -13 80 -21 16 -8 41 -15 55 -15 31 0 81 -46 75 -69 -7 -23
-16 -105 -22 -191 -3 -41 -7 -93 -9 -115 -2 -22 -6 -85 -9 -140 -3 -55 -12
-122 -19 -150 -7 -27 -12 -56 -11 -62 1 -7 2 -26 3 -43 1 -25 5 -29 26 -28 14
1 25 6 25 11 0 4 4 6 9 3 4 -3 16 3 26 14 10 11 15 20 10 20 -4 0 8 14 26 30
42 38 115 90 126 90 4 0 20 16 36 35 19 23 32 32 44 28 11 -4 14 -3 9 5 -4 7
-2 12 3 12 6 0 11 7 11 15 0 8 5 15 10 15 6 0 20 12 33 26 12 15 37 33 55 40
17 8 32 21 32 28 0 8 9 18 20 21 11 3 20 11 20 17 0 5 7 8 15 4 9 -3 25 8 42
31 15 20 42 42 60 50 18 7 33 19 33 26 0 8 15 26 33 40 17 15 56 47 86 72 30
25 61 45 68 45 7 0 13 7 13 15 0 9 8 19 18 22 9 4 23 15 30 25 7 10 20 18 28
18 8 0 13 4 10 8 -6 10 33 45 52 48 19 3 53 35 47 44 -2 4 7 12 22 19 39 18
146 118 138 130 -5 10 23 141 39 181 13 30 28 92 31 125 0 6 6 20 13 32 7 12
12 39 12 60 1 21 8 56 16 78 8 22 21 72 28 110 8 39 31 131 51 205 20 74 37
143 38 153 1 9 5 17 10 17 4 0 7 6 6 13 -4 19 22 161 32 173 5 6 15 42 23 80
27 126 48 209 61 239 13 28 19 66 16 107 -2 25 -51 18 -79 -12 -13 -14 -29
-25 -36 -26 -27 -1 -52 -15 -61 -36 -6 -13 -24 -26 -42 -30 -18 -5 -33 -13
-33 -18 0 -5 -15 -17 -32 -25 -57 -26 -132 -76 -148 -99 -8 -11 -15 -38 -16
-59 0 -21 -6 -42 -13 -46 -7 -5 -12 -11 -11 -15 4 -11 -11 -100 -22 -134 -5
-18 -8 -36 -5 -39 9 -8 73 16 98 37 49 44 52 13 7 -85 -9 -20 -14 -55 -17
-103 0 -13 -5 -20 -11 -17 -6 3 -10 -4 -11 -17 0 -13 -2 -30 -3 -38 -2 -8 -6
-39 -10 -69 -4 -29 -14 -63 -21 -75 -8 -13 -17 -45 -21 -72 -3 -27 -9 -62 -14
-79 -12 -38 -52 -193 -80 -309 -12 -49 -28 -96 -36 -103 -8 -8 -14 -12 -14 -8
0 4 -8 -1 -17 -11 -10 -10 -16 -18 -13 -20 9 -3 -75 -74 -120 -101 -25 -15
-51 -35 -58 -45 -7 -10 -18 -16 -23 -13 -5 3 -6 0 -3 -8 6 -16 -22 -31 -38
-20 -7 3 -8 1 -4 -5 4 -7 2 -12 -3 -12 -6 0 -11 -7 -11 -15 0 -8 -5 -15 -10
-15 -6 0 -20 -12 -33 -26 -12 -15 -37 -33 -55 -41 -18 -7 -30 -18 -27 -23 3
-6 -5 -15 -19 -22 -14 -6 -26 -15 -26 -21 0 -5 -6 -7 -14 -4 -9 4 -29 -11 -51
-39 -20 -24 -45 -44 -55 -44 -11 0 -25 -12 -32 -27 -8 -16 -23 -29 -36 -31
-23 -4 -23 -2 -18 60 3 35 7 81 10 103 3 22 8 76 11 120 11 172 17 252 21 290
10 94 13 269 4 242 -5 -16 -14 -35 -21 -43 -6 -8 -9 -14 -5 -14 3 0 1 -12 -5
-27 -6 -16 -11 -40 -11 -55 0 -16 -3 -28 -7 -28 -5 0 -11 -24 -14 -52 -5 -55
-33 -146 -48 -162 -5 -6 -24 -4 -49 4 -22 7 -47 13 -55 13 -8 0 -15 3 -15 7 0
4 -12 7 -28 8 -15 0 -48 8 -72 16 -25 9 -53 16 -62 16 -26 0 -47 27 -41 53 2
12 6 42 8 67 5 63 32 172 45 180 6 4 8 14 5 23 -4 8 -2 24 4 35 6 11 13 34 16
51 3 18 12 42 19 54 8 12 19 41 25 63 6 23 18 45 26 48 8 3 15 11 15 19 0 17
35 84 54 106 9 10 21 32 27 49 6 18 16 29 22 25 5 -3 7 -2 4 4 -10 16 153 198
183 205 8 2 22 15 32 30 30 48 53 45 111 -11 28 -28 64 -55 78 -61 15 -6 31
-22 37 -34 5 -13 26 -30 46 -40 19 -9 38 -21 41 -27 8 -12 -52 -71 -107 -105
-21 -14 -47 -38 -57 -54 -10 -17 -21 -27 -25 -23 -4 4 -4 0 -1 -9 6 -14 15
-12 75 18 38 19 72 34 75 34 14 0 74 47 68 53 -3 4 -2 7 3 7 5 0 47 23 93 50
46 28 87 50 91 50 4 0 -1 -35 -10 -77 -10 -43 -21 -95 -24 -116 -3 -21 -11
-47 -16 -58 -6 -10 -13 -43 -16 -72 -3 -28 -10 -60 -15 -69 -5 -9 -9 -26 -9
-37 0 -11 -11 -54 -25 -96 -14 -41 -24 -89 -23 -107 1 -31 22 -68 38 -68 13 0
42 82 50 142 5 34 14 64 20 68 6 4 15 35 20 71 6 35 19 100 31 144 11 44 27
107 35 140 8 33 21 80 29 105 7 25 16 63 20 85 3 22 12 65 19 95 19 74 37 151
42 175 2 11 6 32 9 47 5 21 1 29 -17 39 -31 16 -58 45 -50 54 4 4 0 6 -8 4
-23 -4 -68 11 -81 28 -7 8 -41 28 -76 44 -39 18 -67 39 -73 52 -5 12 -9 19 -9
14 -1 -4 -17 7 -36 24 -19 18 -32 37 -28 43 3 6 3 8 -2 4 -11 -11 -66 31 -165
124 -25 24 -52 45 -60 47 -39 9 -46 10 -67 1z"/>
<path d="M1197 3729 c7 -7 15 -10 18 -7 3 3 -2 9 -12 12 -14 6 -15 5 -6 -5z"/>
<path d="M3176 2474 c-8 -21 -8 -69 1 -78 10 -9 32 -95 33 -124 0 -13 7 -30
15 -38 8 -9 15 -25 15 -37 0 -19 17 -84 51 -193 5 -17 9 -42 9 -56 0 -13 3
-28 7 -32 4 -4 13 -31 20 -59 35 -151 42 -177 52 -209 6 -19 13 -44 16 -56 2
-11 11 -49 21 -83 13 -45 14 -64 6 -67 -6 -2 -27 -14 -47 -28 -20 -13 -48 -27
-63 -30 -15 -4 -39 -16 -54 -26 -16 -11 -32 -16 -38 -13 -5 3 -10 2 -10 -3 0
-6 -16 -13 -35 -16 -19 -4 -35 -11 -35 -17 0 -5 -19 -18 -42 -29 -24 -11 -50
-24 -58 -29 -32 -19 -137 -65 -178 -77 -24 -7 -55 -22 -69 -34 -14 -11 -32
-20 -39 -20 -7 0 -18 -9 -24 -20 -12 -23 -1 -30 75 -50 28 -7 70 -21 94 -32
23 -10 80 -31 125 -45 44 -14 88 -32 97 -39 8 -8 31 -17 50 -20 40 -7 260 -79
306 -100 17 -8 45 -17 62 -20 16 -4 32 -12 35 -19 2 -7 24 -16 48 -20 24 -4
67 -18 97 -31 29 -13 61 -24 70 -24 9 0 33 -9 54 -20 20 -11 48 -20 61 -20 14
0 27 -4 30 -9 3 -4 33 -16 66 -25 38 -11 58 -21 54 -28 -4 -7 -2 -8 4 -4 6 4
33 0 59 -10 64 -21 70 -22 117 -12 23 4 65 12 95 18 30 5 61 16 70 23 19 16
88 37 123 37 14 0 28 3 32 7 12 12 100 43 121 43 22 0 121 33 132 43 3 4 16 7
27 7 12 0 55 11 96 24 41 13 95 29 120 36 25 7 55 17 67 22 12 6 29 8 37 5 9
-4 16 -2 16 3 0 6 7 10 15 10 9 0 26 7 38 15 12 8 49 17 82 21 33 4 69 13 80
20 11 8 29 14 40 14 20 0 134 35 167 51 10 5 24 9 31 9 8 0 28 7 46 16 18 9
44 14 59 11 22 -4 30 -1 39 19 11 23 8 27 -25 48 -20 13 -46 26 -58 30 -11 3
-31 16 -45 29 -13 12 -28 22 -34 23 -18 2 -79 32 -105 51 -14 11 -32 23 -40
26 -8 4 -28 15 -45 25 -39 24 -85 26 -147 7 -29 -8 -67 -15 -85 -15 -21 0 -32
-5 -31 -12 2 -8 -9 -13 -29 -14 -40 -1 -84 -29 -77 -48 3 -8 18 -19 32 -25 15
-5 21 -10 14 -10 -26 -2 0 -21 29 -21 56 0 32 -24 -41 -41 -19 -4 -62 -17 -94
-28 -33 -12 -73 -21 -91 -21 -17 0 -36 -5 -43 -12 -6 -6 -30 -14 -54 -19 -42
-7 -127 -34 -160 -50 -10 -5 -29 -9 -43 -9 -13 0 -41 -7 -62 -16 -63 -28 -118
-45 -246 -77 -97 -25 -172 -11 -332 59 -22 10 -43 18 -47 18 -3 1 -10 4 -14 9
-4 4 -18 7 -30 7 -13 0 -25 4 -28 9 -4 5 -24 12 -45 16 -22 4 -42 13 -45 21
-3 8 -17 14 -31 14 -14 0 -62 13 -108 29 -45 16 -98 35 -117 41 -19 7 -48 18
-63 26 -16 8 -35 14 -42 14 -8 0 -16 4 -19 9 -6 9 150 91 175 91 9 0 24 9 34
20 10 11 23 20 30 20 6 0 41 15 77 34 37 19 83 39 102 46 19 6 40 18 46 26 7
7 23 14 36 14 12 0 26 4 29 10 8 13 129 70 149 70 9 0 16 4 16 10 0 5 19 14
41 20 29 8 38 15 31 22 -7 7 -35 5 -90 -6 -43 -9 -90 -16 -104 -16 -14 0 -31
-6 -37 -14 -14 -17 -65 -31 -99 -27 -13 1 -32 -5 -42 -14 -12 -10 -26 -14 -43
-10 -21 6 -27 15 -32 48 -4 23 -10 56 -15 72 -23 79 -32 123 -37 168 -5 49 -5
50 20 45 15 -3 28 0 30 6 3 6 33 20 68 30 35 10 75 24 89 31 42 21 112 37 178
41 34 2 82 9 105 16 45 12 320 15 381 4 20 -4 34 -11 31 -17 -5 -7 50 -15 78
-10 7 1 85 -32 137 -59 21 -10 20 -80 -1 -210 -10 -58 -18 -111 -18 -119 -1
-11 -4 -11 -16 -1 -8 7 -21 10 -30 7 -8 -4 -17 -2 -21 4 -3 6 -12 8 -20 5 -8
-3 -38 3 -67 14 -56 22 -107 26 -107 10 0 -6 21 -23 48 -39 26 -16 55 -36 65
-45 9 -9 25 -16 36 -16 10 0 29 -8 42 -19 13 -10 42 -28 64 -39 22 -11 59 -30
82 -42 48 -25 48 -35 0 -45 -17 -3 -45 -12 -62 -20 -47 -20 -99 -35 -126 -35
-14 0 -42 -9 -64 -20 -22 -11 -54 -20 -72 -20 -19 0 -55 -11 -81 -24 -26 -13
-63 -26 -82 -29 -63 -10 -130 -44 -130 -67 0 -11 6 -21 13 -22 33 -4 145 -2
141 3 -6 10 38 26 143 55 54 14 121 33 148 41 28 8 69 20 93 26 23 6 42 15 42
19 0 5 15 8 33 8 18 0 38 5 44 11 6 6 26 14 44 19 19 4 42 11 52 15 12 5 17 2
17 -9 0 -9 6 -16 14 -16 22 0 28 18 10 28 -12 7 -5 11 32 19 27 6 81 21 119
33 39 12 86 24 105 27 19 3 38 10 41 16 7 10 13 192 11 310 -1 55 2 71 18 87
12 12 19 32 18 52 -1 19 4 56 10 83 6 28 13 73 16 100 3 28 8 78 12 113 10 89
-4 102 -100 98 -91 -4 -163 -38 -127 -60 9 -6 17 -42 26 -126 11 -99 19 -149
45 -273 11 -54 7 -294 -5 -306 -13 -12 -151 53 -165 79 -6 12 -16 17 -26 13
-9 -3 -20 0 -25 8 -11 18 -12 32 -1 25 5 -3 7 8 4 23 -2 16 3 57 12 91 9 35
19 91 21 123 5 62 15 91 15 44 0 -15 5 -27 11 -27 7 0 9 10 5 28 -4 15 -10 50
-13 77 -6 54 -38 95 -74 95 -13 0 -18 4 -13 12 4 7 3 8 -4 4 -6 -4 -26 1 -44
11 -18 9 -35 18 -38 19 -3 1 -15 5 -27 9 -13 4 -20 11 -17 16 3 5 -3 6 -12 2
-13 -5 -15 -3 -9 7 5 8 4 11 -3 6 -6 -4 -27 0 -46 8 -19 8 -84 25 -143 37 -92
20 -138 23 -313 23 -267 0 -338 -4 -351 -21 -6 -7 -22 -13 -34 -13 -23 0 -141
-29 -208 -51 -35 -12 -40 -11 -62 12 -14 13 -48 44 -76 69 -27 25 -89 82 -137
128 -48 45 -89 82 -91 82 -10 0 -141 140 -141 150 0 16 -17 12 -24 -6z"/>
<path d="M4930 2030 c0 -5 7 -10 15 -10 8 0 15 5 15 10 0 6 -7 10 -15 10 -8 0
-15 -4 -15 -10z"/>
<path d="M2170 1910 c-8 -5 -11 -12 -7 -16 4 -4 13 -2 19 4 15 15 7 24 -12 12z"/>
<path d="M5051 1904 c0 -11 3 -14 6 -6 3 7 2 16 -1 19 -3 4 -6 -2 -5 -13z"/>
<path d="M4498 1833 c7 -3 16 -2 19 1 4 3 -2 6 -13 5 -11 0 -14 -3 -6 -6z"/>
<path d="M4120 1570 c0 -5 9 -10 20 -10 11 0 20 5 20 10 0 6 -9 10 -20 10 -11
0 -20 -4 -20 -10z"/>
<path d="M4055 1550 c-3 -6 5 -10 19 -10 14 0 28 5 31 10 3 6 -5 10 -19 10
-14 0 -28 -4 -31 -10z"/>
<path d="M3202 1401 c2 -7 7 -12 11 -12 12 1 9 15 -3 20 -7 2 -11 -2 -8 -8z"/>
<path d="M3656 1236 c3 -9 11 -16 16 -16 13 0 5 23 -10 28 -7 2 -10 -2 -6 -12z"/>
<path d="M5488 1243 c7 -3 16 -2 19 1 4 3 -2 6 -13 5 -11 0 -14 -3 -6 -6z"/>
<path d="M4935 1150 c3 -5 10 -10 16 -10 5 0 9 5 9 10 0 6 -7 10 -16 10 -8 0
-12 -4 -9 -10z"/>
<path d="M3998 923 c6 -2 18 -2 25 0 6 3 1 5 -13 5 -14 0 -19 -2 -12 -5z"/>
<path d="M4438 923 c6 -2 18 -2 25 0 6 3 1 5 -13 5 -14 0 -19 -2 -12 -5z"/>
<path d="M5240 830 c0 -5 9 -10 20 -10 11 0 20 5 20 10 0 6 -9 10 -20 10 -11
0 -20 -4 -20 -10z"/>
<path d="M3205 810 c-3 -5 1 -10 10 -10 9 0 13 5 10 10 -3 6 -8 10 -10 10 -2
0 -7 -4 -10 -10z"/>
<path d="M4650 650 c0 -6 7 -10 15 -10 8 0 15 2 15 4 0 2 -7 6 -15 10 -8 3
-15 1 -15 -4z"/>
<path d="M4000 570 c0 -5 7 -10 15 -10 8 0 15 5 15 10 0 6 -7 10 -15 10 -8 0
-15 -4 -15 -10z"/>
<path d="M4080 530 c-12 -8 -10 -10 8 -10 13 0 20 4 17 10 -7 12 -6 12 -25 0z"/>
<path d="M4173 523 c9 -2 23 -2 30 0 6 3 -1 5 -18 5 -16 0 -22 -2 -12 -5z"/>
</g>
</svg>
